<svg xmlns="http://www.w3.org/2000/svg" viewBox="0 0 512 512" x="0px" y="0px" style="max-width:100%" height="100%"><path d="M497.94,240.239c-24.016-6-25.8-44.5-25.928-67.121a31.914,31.914,0,0,0-.126-42.382,123,123,0,0,0-33.049-79.4C417.478,28.548,389.479,16,360,16s-57.478,12.548-78.837,35.333a123,123,0,0,0-33.049,79.4c-.039.044-.076.088-.114.132V120c0-25.467-12.21-51.64-33.5-71.808C192.906,27.734,164.294,16,136,16S79.094,27.734,57.5,48.192C36.21,68.36,24,94.533,24,120v10.868A31.975,31.975,0,0,0,48,184a32.483,32.483,0,0,0,3.281-.167,87.992,87.992,0,0,0,20.343,36.1A104.22,104.22,0,0,0,16,312V488a8,8,0,0,0,8,8H472a8,8,0,0,0,8-8V312a103.638,103.638,0,0,0-3.26-25.736,35.423,35.423,0,0,0,22.415-18.686A47.4,47.4,0,0,0,504,248,8,8,0,0,0,497.94,240.239ZM464,352H448V261.446A87.959,87.959,0,0,1,464,312ZM432,480H368V286.381L388.676,272.6A8,8,0,0,0,392,267.881l7.277-29.108a87.929,87.929,0,0,0,12.171-7.339A87.609,87.609,0,0,1,432,244.113ZM64,448h64v32H64Zm80,0h64v32H144Zm80-80h16V480H224Zm16-216a16.019,16.019,0,0,1-16,16c-.123,0-.243-.015-.366-.018.238-2.63.366-5.291.366-7.982V136A16.019,16.019,0,0,1,240,152Zm32-16v24c0,2.691.128,5.352.366,7.982-.123,0-.243.018-.366.018a16,16,0,0,1,0-32Zm-51.281,47.832A32.483,32.483,0,0,0,224,184a31.925,31.925,0,0,0,23.857-10.7c-.705,24.144-4.78,53.687-25.8,58.942a8,8,0,0,0-2.237.944,103.589,103.589,0,0,0-19.447-13.254A87.985,87.985,0,0,0,220.719,183.832Zm42.776-.988A31.916,31.916,0,0,0,272,184a32.483,32.483,0,0,0,3.281-.167,87.992,87.992,0,0,0,20.343,36.1A104.282,104.282,0,0,0,248,272.074a104.52,104.52,0,0,0-15.894-26.367C256.614,235.359,262.146,204.381,263.5,182.844ZM256,312a87.959,87.959,0,0,1,16-50.554V352H256Zm32-67.887a87.625,87.625,0,0,1,20.626-12.71A88.129,88.129,0,0,0,321.257,239l7.221,28.883A8,8,0,0,0,331.8,272.6L352,286.063V480H288Zm72.239,28.212L343.25,261l-3.861-15.444a88.115,88.115,0,0,0,41.731-.125L377.228,261ZM360,232a72.081,72.081,0,0,1-72-72V142.743a36.036,36.036,0,0,0,23.155-19.165c1.1-2.2,2.177-4.14,3.241-5.873a8,8,0,0,0,11.261-11.362l-.262-.262A18.815,18.815,0,0,1,334.77,104c9.695,0,18.256-4.723,24.879-13.689C365.893,99.279,374.267,104,384,104a21.321,21.321,0,0,1,10.335,2.352,8,8,0,0,0,11.238,11.381c1.091,1.727,2.183,3.666,3.272,5.845a36.239,36.239,0,0,0,20.188,18.235c1.031.378,2.024.689,2.967.948V160a72.635,72.635,0,0,1-1.124,12.745A71.873,71.873,0,0,1,360,232Zm88-72V136a16,16,0,0,1,0,32c-.122,0-.241-.015-.362-.018C447.876,165.331,448,162.665,448,160ZM427.163,62.275a106.629,106.629,0,0,1,27.79,58.5,31.949,31.949,0,0,0-24.12,4.222,20.633,20.633,0,0,1-7.678-8.57,76.387,76.387,0,0,0-6.066-10.2l4.568-4.568a8,8,0,0,0-11.314-11.314l-4.434,4.434A36.886,36.886,0,0,0,384,88c-10.4,0-15.021-13.68-16-17.051V32.376C390.06,34.415,410.824,44.846,427.163,62.275Zm-134.326,0c16.339-17.429,37.1-27.86,59.163-29.9V70.74C350.708,74.458,345.281,88,334.77,88a34.462,34.462,0,0,0-20.955,6.5l-4.158-4.158a8,8,0,0,0-11.314,11.314l4.491,4.491a85.644,85.644,0,0,0-5.989,10.274,20.826,20.826,0,0,1-7.685,8.571,31.927,31.927,0,0,0-24.113-4.223A106.629,106.629,0,0,1,292.837,62.275ZM68.5,59.808C87.156,42.136,111.758,32,136,32s48.844,10.136,67.5,27.808C221.611,76.968,232,98.907,232,120v1.013A31.94,31.94,0,0,0,224,120h-8a7.992,7.992,0,0,0-3.1.627c-1.07.45-2.131.984-3.254,1.549a48.046,48.046,0,0,1-20.138,5.631A125.289,125.289,0,0,0,173.11,99.123a8.067,8.067,0,0,0-9.013-2.815,7.808,7.808,0,0,0-5.326,7.592c-.047,1.793-1.087,17.27-22.771,23.794-21.683-6.524-22.723-22-22.769-23.694a7.874,7.874,0,0,0-5.326-7.643,8.045,8.045,0,0,0-9.014,2.766A125.245,125.245,0,0,0,82.5,127.792a50.765,50.765,0,0,1-19.233-5.351c-1.534-.709-2.983-1.379-4.47-1.935A7.993,7.993,0,0,0,56,120H48a31.94,31.94,0,0,0-8,1.013V120C40,98.907,50.389,76.968,68.5,59.808ZM48,168a16,16,0,0,1,0-32v24c0,2.691.128,5.352.366,7.982C48.243,167.985,48.123,168,48,168Zm16-27.9A68.717,68.717,0,0,0,88,144a8.019,8.019,0,0,0,7.642-5.633,98.714,98.714,0,0,1,7.225-16.124c4.555,7.562,13.562,16.934,31.12,21.5a8.027,8.027,0,0,0,4.026,0c17.559-4.566,26.566-13.938,31.121-21.5a98.717,98.717,0,0,1,7.22,16.11A8,8,0,0,0,184,144c10.726,0,18.375-1.7,24-3.671V160a72,72,0,0,1-144,0ZM166.163,242.674a31.994,31.994,0,0,1-60.326,0,88.075,88.075,0,0,0,60.326,0ZM84.626,231.4q1.68,1.212,3.418,2.346a47.987,47.987,0,0,0,95.912,0q1.737-1.134,3.418-2.346A88.176,88.176,0,0,1,240,312v40H224V328a8,8,0,0,0-16,0V432H64V328a8,8,0,0,0-16,0v24H32V312A88.175,88.175,0,0,1,84.626,231.4ZM32,368H48V480H32Zm224,0h16V480H256ZM448,480V368h16V480Zm36.637-219.172a19.38,19.38,0,0,1-13.045,10.3,104.265,104.265,0,0,0-47.126-51.153,87.509,87.509,0,0,0,20.261-36.143A32.34,32.34,0,0,0,448,184a31.917,31.917,0,0,0,8.188-1.066c.837,25.061,5.466,59.214,31.079,70.511A30.008,30.008,0,0,1,484.637,260.828Z" style="" fill="currentColor"></path><circle cx="104" cy="160" r="8" style="" fill="currentColor"></circle><circle cx="168" cy="160" r="8" style="" fill="currentColor"></circle><circle cx="328" cy="160" r="8" style="" fill="currentColor"></circle><circle cx="392" cy="160" r="8" style="" fill="currentColor"></circle><path d="M106.343,186.343a8,8,0,0,0,0,11.314C107.4,198.715,117.228,208,136,208h0c18.771,0,28.6-9.285,29.657-10.343a8,8,0,0,0-11.314-11.314c-.057.057-6.2,5.657-18.343,5.657s-18.286-5.6-18.343-5.657A8,8,0,0,0,106.343,186.343Z" style="" fill="currentColor"></path><path d="M378.343,186.343c-.057.057-6.2,5.657-18.343,5.657s-18.286-5.6-18.343-5.657a8,8,0,0,0-11.314,11.313C331.4,198.715,341.229,208,360,208h0c18.772,0,28.6-9.285,29.657-10.344a8,8,0,0,0-11.314-11.313Z" style="" fill="currentColor"></path></svg>