<svg width="512" height="512" viewBox="0 0 512 512" fill="none" xmlns="http://www.w3.org/2000/svg">
<path d="M72 328C67.2533 328 62.6131 329.408 58.6663 332.045C54.7195 334.682 51.6434 338.43 49.8269 342.816C48.0104 347.201 47.5351 352.027 48.4612 356.682C49.3872 361.338 51.673 365.614 55.0294 368.971C58.3859 372.327 62.6623 374.613 67.3178 375.539C71.9734 376.465 76.799 375.99 81.1844 374.173C85.5698 372.357 89.3181 369.28 91.9553 365.334C94.5924 361.387 96 356.747 96 352C95.9929 345.637 93.462 339.537 88.9627 335.037C84.4634 330.538 78.363 328.007 72 328V328ZM72 360C70.4178 360 68.871 359.531 67.5554 358.652C66.2399 357.773 65.2145 356.523 64.609 355.061C64.0035 353.6 63.845 351.991 64.1537 350.439C64.4624 348.887 65.2243 347.462 66.3432 346.343C67.462 345.224 68.8874 344.462 70.4393 344.154C71.9911 343.845 73.5997 344.003 75.0615 344.609C76.5233 345.214 77.7727 346.24 78.6518 347.555C79.5308 348.871 80 350.418 80 352C79.9976 354.121 79.154 356.154 77.6542 357.654C76.1545 359.154 74.121 359.998 72 360Z" fill="#32383D"/>
<path d="M376 328C371.253 328 366.613 329.408 362.666 332.045C358.72 334.682 355.643 338.43 353.827 342.816C352.01 347.201 351.535 352.027 352.461 356.682C353.387 361.338 355.673 365.614 359.029 368.971C362.386 372.327 366.662 374.613 371.318 375.539C375.973 376.465 380.799 375.99 385.184 374.173C389.57 372.357 393.318 369.28 395.955 365.334C398.592 361.387 400 356.747 400 352C399.993 345.637 397.462 339.537 392.963 335.037C388.463 330.538 382.363 328.007 376 328V328ZM376 360C374.418 360 372.871 359.531 371.555 358.652C370.24 357.773 369.214 356.523 368.609 355.061C368.003 353.6 367.845 351.991 368.154 350.439C368.462 348.887 369.224 347.462 370.343 346.343C371.462 345.224 372.887 344.462 374.439 344.154C375.991 343.845 377.6 344.003 379.061 344.609C380.523 345.214 381.773 346.24 382.652 347.555C383.531 348.871 384 350.418 384 352C383.998 354.121 383.154 356.154 381.654 357.654C380.154 359.154 378.121 359.998 376 360Z" fill="#32383D"/>
<path d="M432 352C432 344.566 430.52 337.206 427.646 330.35C424.771 323.493 420.561 317.278 415.259 312.066C409.958 306.854 403.672 302.75 396.767 299.993C389.863 297.236 382.479 295.881 375.046 296.008C344.694 296.515 320 321.987 320 352.79V379.665C298.085 373.7 266.123 368 224 368C181.877 368 149.915 373.7 128 379.665V352C128 344.463 126.479 337.003 123.527 330.068C120.575 323.133 116.254 316.866 110.822 311.641C105.39 306.416 98.959 302.341 91.9147 299.66C84.8703 296.98 77.3574 295.749 69.826 296.042C55.7518 296.635 42.4135 302.492 32.4527 312.453C22.492 322.414 16.6351 335.752 16.042 349.826C15.508 363.657 20.1123 377.196 28.9674 387.834C37.8225 398.472 50.3017 405.455 64 407.439V440C64.0095 448.484 67.384 456.618 73.3831 462.617C79.3822 468.616 87.516 471.99 96 472V496C96 498.122 96.8428 500.157 98.3431 501.657C99.8434 503.157 101.878 504 104 504H128C129.486 504 130.942 503.586 132.206 502.805C133.469 502.024 134.491 500.907 135.155 499.578L148.944 472H299.056L312.845 499.578C313.509 500.907 314.531 502.024 315.794 502.805C317.058 503.586 318.514 504 320 504H344C346.122 504 348.157 503.157 349.657 501.657C351.157 500.157 352 498.122 352 496V472C360.484 471.99 368.618 468.616 374.617 462.617C380.616 456.618 383.99 448.484 384 440V407.43C397.321 405.489 409.5 398.822 418.312 388.645C427.125 378.469 431.983 365.462 432 352V352ZM123.056 488H112V472H131.056L123.056 488ZM336 488H324.944L316.944 472H336V488ZM376 392C373.878 392 371.843 392.843 370.343 394.343C368.843 395.843 368 397.878 368 400V440C367.995 444.242 366.308 448.309 363.308 451.308C360.309 454.308 356.242 455.995 352 456H96C91.7581 455.995 87.6913 454.308 84.6918 451.308C81.6923 448.309 80.005 444.242 80 440V400C80 397.878 79.1571 395.843 77.6568 394.343C76.1565 392.843 74.1217 392 72 392C66.6152 392 61.2859 390.913 56.3314 388.804C51.3769 386.695 46.8993 383.607 43.1669 379.725C39.4346 375.844 36.5243 371.249 34.6106 366.216C32.6969 361.182 31.8192 355.815 32.03 350.434C32.4539 340.386 36.6357 330.863 43.7472 323.751C50.8588 316.64 60.3816 312.458 70.43 312.034C75.8106 311.823 81.1785 312.7 86.212 314.613C91.2454 316.526 95.8407 319.436 99.7225 323.168C103.604 326.9 106.693 331.377 108.802 336.332C110.912 341.286 112 346.615 112 352V384.6C99.389 389 92.762 392.642 92.078 393.027L99.905 406.982C100.318 406.752 142.193 384 224 384C305.807 384 347.682 406.752 348.078 406.973L355.922 393.027C355.238 392.642 348.611 388.996 336 384.6V352.79C336 330.664 353.636 312.368 375.313 312.006C380.594 311.915 385.842 312.87 390.752 314.817C395.662 316.765 400.138 319.665 403.921 323.352C407.704 327.038 410.72 331.437 412.794 336.296C414.868 341.154 415.959 346.374 416.004 351.657C416.05 356.939 415.048 362.177 413.058 367.07C411.068 371.963 408.129 376.414 404.409 380.165C400.69 383.915 396.264 386.893 391.388 388.924C386.512 390.955 381.282 392.001 376 392V392Z" fill="#32383D"/>
<path d="M80 240C80.005 235.758 81.6924 231.691 84.6918 228.692C87.6913 225.692 91.7581 224.005 96 224H352C356.242 224.005 360.309 225.692 363.308 228.692C366.308 231.691 367.995 235.758 368 240V280H384V240C383.99 231.516 380.616 223.382 374.617 217.383C368.618 211.384 360.484 208.01 352 208H96C87.516 208.01 79.3822 211.384 73.3831 217.383C67.384 223.382 64.0095 231.516 64 240V280H80V240Z" fill="#32383D"/>
<path d="M176 256H192V272H176V256Z" fill="#32383D"/>
<path d="M216 296H232V312H216V296Z" fill="#32383D"/>
<path d="M136 296H152V312H136V296Z" fill="#32383D"/>
<path d="M176 336H192V352H176V336Z" fill="#32383D"/>
<path d="M256 256H272V272H256V256Z" fill="#32383D"/>
<path d="M296 296H312V312H296V296Z" fill="#32383D"/>
<path d="M256 336H272V352H256V336Z" fill="#32383D"/>
<path d="M464 8H240C231.516 8.00953 223.382 11.384 217.383 17.3831C211.384 23.3822 208.01 31.516 208 40V48H224V40C224.005 35.7581 225.692 31.6913 228.692 28.6918C231.691 25.6924 235.758 24.005 240 24H344V192H360V24H464C468.242 24.005 472.309 25.6924 475.308 28.6918C478.308 31.6913 479.995 35.7581 480 40V440C479.995 444.242 478.308 448.309 475.308 451.308C472.309 454.308 468.242 455.995 464 456H392V472H411.056L424.845 499.578C425.509 500.907 426.531 502.024 427.794 502.805C429.058 503.586 430.514 504 432 504H456C458.122 504 460.157 503.157 461.657 501.657C463.157 500.157 464 498.122 464 496V472C472.484 471.99 480.618 468.616 486.617 462.617C492.616 456.618 495.99 448.484 496 440V40C495.99 31.516 492.616 23.3822 486.617 17.3831C480.618 11.384 472.484 8.00953 464 8V8ZM448 488H436.944L428.944 472H448V488Z" fill="#32383D"/>
<path d="M71.9999 176H144V192H160V176H232C233.107 176 234.201 175.77 235.214 175.326C236.228 174.881 237.138 174.231 237.887 173.417C238.636 172.602 239.208 171.641 239.567 170.594C239.926 169.548 240.064 168.438 239.972 167.335L231.972 71.335C231.805 69.3354 230.893 67.4715 229.416 66.1128C227.94 64.7542 226.006 64.0001 224 64H160V48H144V64H79.9999C77.9934 64.0001 76.0601 64.7542 74.5835 66.1128C73.1069 67.4715 72.1947 69.3354 72.0279 71.335L64.0279 167.335C63.9359 168.438 64.0737 169.548 64.4326 170.594C64.7915 171.641 65.3636 172.602 66.1129 173.417C66.8621 174.231 67.7721 174.881 68.7855 175.326C69.7988 175.77 70.8933 176 71.9999 176V176ZM87.3609 80H216.639L223.306 160H80.6939L87.3609 80Z" fill="#32383D"/>
</svg>
