<svg width="512" height="512" viewBox="0 0 512 512" fill="none" xmlns="http://www.w3.org/2000/svg">
<path d="M494.878 222.466L447.755 98.884C446.378 95.2608 444.292 91.9492 441.618 89.1434C438.944 86.3376 435.737 84.0942 432.184 82.545C428.581 80.9415 424.693 80.074 420.75 79.9933C416.807 79.9125 412.887 80.6203 409.221 82.075C405.566 83.4909 402.235 85.63 399.427 88.3642C396.62 91.0984 394.393 94.3714 392.88 97.987C391.376 101.537 390.603 105.355 390.61 109.21C390.617 113.066 391.402 116.881 392.918 120.426L414.879 172.147C410.98 171.746 407.041 172.168 403.315 173.385C399.589 174.602 396.161 176.587 393.25 179.212C390.34 181.837 388.013 185.044 386.419 188.624C384.826 192.205 384.002 196.081 384 200V262.056C383.992 268.332 382.531 274.521 379.731 280.138C366.788 306.102 360.034 334.711 360 363.722V384C357.878 384 355.843 384.843 354.343 386.343C352.843 387.843 352 389.878 352 392V496H368V400H464V496H480V392C480 389.878 479.157 387.843 477.657 386.343C476.157 384.843 474.122 384 472 384H468.95L493.75 324.272C507.044 291.712 507.448 255.313 494.878 222.466V222.466ZM478.954 318.19L451.624 384H376V363.722C376.031 337.195 382.207 311.035 394.042 287.294C397.95 279.454 399.989 270.816 400 262.056V200C400.004 196.863 401.237 193.853 403.435 191.614C405.633 189.376 408.62 188.088 411.756 188.026C414.893 187.964 417.928 189.133 420.213 191.283C422.497 193.433 423.848 196.393 423.976 199.527C423.985 199.849 424 296 424 296H440V200C440 199.442 439.979 198.889 439.947 198.339C439.699 192.39 438.377 186.535 436.047 181.056L407.647 114.179C406.971 112.599 406.621 110.899 406.619 109.181C406.616 107.462 406.961 105.761 407.632 104.179C408.323 102.536 409.339 101.05 410.618 99.8094C411.898 98.5688 413.415 97.5993 415.078 96.959C416.777 96.2847 418.593 95.9566 420.421 95.994C422.248 96.0314 424.05 96.4336 425.72 97.177C427.334 97.8766 428.793 98.8916 430.009 100.162C431.226 101.433 432.177 102.934 432.806 104.577L479.929 228.16C491.048 257.205 490.7 289.393 478.954 318.19V318.19Z" fill="#32383D"/>
<path d="M152 384V363.722C151.965 334.711 145.212 306.102 132.269 280.138C129.469 274.521 128.008 268.332 128 262.056V200C127.998 196.081 127.174 192.205 125.58 188.624C123.987 185.044 121.66 181.837 118.75 179.212C115.839 176.587 112.41 174.602 108.685 173.385C104.959 172.168 101.02 171.746 97.1208 172.147L119.085 120.419C120.6 116.875 121.384 113.061 121.39 109.207C121.396 105.352 120.624 101.536 119.12 97.987C117.607 94.3714 115.38 91.0984 112.572 88.3642C109.764 85.63 106.433 83.4909 102.779 82.075C99.1128 80.6203 95.1931 79.9125 91.2498 79.9933C87.3066 80.074 83.4192 80.9415 79.8158 82.545C76.2631 84.0941 73.0557 86.3373 70.3818 89.1429C67.7079 91.9485 65.6214 95.26 64.2448 98.883L17.1218 222.466C4.54755 255.332 4.95766 291.752 18.2688 324.327L43.0498 384H39.9998C37.878 384 35.8432 384.843 34.3429 386.343C32.8426 387.843 31.9998 389.878 31.9998 392V496H47.9998V400H144V496H160V392C160 389.878 159.157 387.843 157.657 386.343C156.156 384.843 154.121 384 152 384ZM33.0668 318.245C21.3046 289.436 20.9471 257.23 32.0668 228.167L79.1938 104.583C79.8229 102.94 80.7737 101.439 81.9905 100.168C83.2073 98.8977 84.6655 97.8827 86.2798 97.183C87.9497 96.4399 89.7513 96.0378 91.5788 96.0003C93.4062 95.9629 95.2228 96.2909 96.9218 96.965C98.585 97.6053 100.102 98.5748 101.381 99.8154C102.661 101.056 103.677 102.542 104.368 104.185C105.038 105.765 105.382 107.464 105.38 109.18C105.378 110.897 105.029 112.595 104.355 114.173L75.9548 181.057C73.6245 186.536 72.3032 192.391 72.0548 198.34C72.0208 198.889 71.9998 296 71.9998 296H87.9998C87.9998 296 88.0148 199.849 88.0238 199.527C88.1518 196.393 89.5027 193.433 91.787 191.283C94.0713 189.133 97.107 187.964 100.243 188.026C103.38 188.088 106.367 189.376 108.565 191.614C110.762 193.853 111.995 196.863 112 200V262.056C112.011 270.816 114.05 279.454 117.958 287.294C129.793 311.035 135.968 337.195 136 363.722V384H60.3758L33.0668 318.245Z" fill="#32383D"/>
<path d="M192 160H208V176H192V160Z" fill="#32383D"/>
<path d="M224 160H240V176H224V160Z" fill="#32383D"/>
<path d="M192 192H208V208H192V192Z" fill="#32383D"/>
<path d="M296 256H312V272H296V256Z" fill="#32383D"/>
<path d="M264 256H280V272H264V256Z" fill="#32383D"/>
<path d="M192 224H208V240H192V224Z" fill="#32383D"/>
<path d="M192 256H208V272H192V256Z" fill="#32383D"/>
<path d="M168 304H336C338.122 304 340.157 303.157 341.657 301.657C343.157 300.157 344 298.122 344 296V240C346.122 240 348.157 239.157 349.657 237.657C351.157 236.157 352 234.122 352 232V184C352 182.854 351.754 181.721 351.278 180.678C350.802 179.635 350.108 178.707 349.242 177.956C348.376 177.205 347.358 176.649 346.259 176.325C345.159 176.001 344.003 175.918 342.868 176.08L230.868 192.08C228.962 192.352 227.218 193.303 225.956 194.758C224.694 196.213 224 198.074 224 200V232C224 234.122 224.843 236.157 226.343 237.657C227.843 239.157 229.878 240 232 240V288H176V144H256V168H272V144C274.122 144 276.157 143.157 277.657 141.657C279.157 140.157 280 138.122 280 136V88C280 86.8537 279.754 85.7208 279.278 84.678C278.802 83.6352 278.108 82.7069 277.242 81.9558C276.376 81.2048 275.358 80.6486 274.259 80.325C273.159 80.0013 272.003 79.9178 270.868 80.08L158.868 96.08C156.962 96.3525 155.218 97.3034 153.956 98.7583C152.694 100.213 152 102.074 152 104V136C152 138.122 152.843 140.157 154.343 141.657C155.843 143.157 157.878 144 160 144V296C160 298.122 160.843 300.157 162.343 301.657C163.843 303.157 165.878 304 168 304ZM240 206.938L336 193.224V224H240V206.938ZM248 240H328V288H248V240ZM168 110.938L264 97.224V128H168V110.938Z" fill="#32383D"/>
<path d="M256 384C225.512 384.011 195.544 376.102 169.032 361.048L161.114 374.948C190.043 391.365 222.737 399.996 256 399.996C289.263 399.996 321.957 391.365 350.886 374.948L342.968 361.048C316.456 376.102 286.488 384.011 256 384V384Z" fill="#32383D"/>
<path d="M256 32C279.601 31.9196 302.973 36.6248 324.705 45.8314C346.436 55.0379 366.075 68.5547 382.436 85.565L393.928 74.435C376.026 55.9491 354.592 41.2503 330.897 31.212C307.203 21.1738 281.733 16.001 256 16.001C230.267 16.001 204.796 21.1738 181.102 31.212C157.408 41.2503 135.973 55.9491 118.072 74.435L129.564 85.565C145.924 68.5547 165.564 55.0379 187.295 45.8314C209.026 36.6248 232.399 31.9196 256 32V32Z" fill="#32383D"/>
<path d="M188.628 353.164L195.372 338.654C190.161 336.23 185.1 333.497 180.216 330.47L171.784 344.07C177.212 347.434 182.837 350.471 188.628 353.164V353.164Z" fill="#32383D"/>
<path d="M256 352C240.281 352.018 224.666 349.459 209.776 344.423L204.644 359.577C228.608 367.668 254.147 369.973 279.173 366.305C304.199 362.637 328.002 353.098 348.637 338.47L339.363 325.431C315.033 342.778 285.88 352.069 256 352V352Z" fill="#32383D"/>
<path d="M230.746 49.982L233.254 65.782C240.777 64.5942 248.383 63.9984 256 64C292.612 63.945 327.86 77.8908 354.525 102.981L365.475 91.315C335.847 63.4356 296.682 47.9392 256 48C247.543 47.9995 239.099 48.6622 230.746 49.982V49.982Z" fill="#32383D"/>
<path d="M384 416H400V432H384V416Z" fill="#32383D"/>
<path d="M112 416H128V432H112V416Z" fill="#32383D"/>
</svg>
